<?xml version="1.0" encoding="utf-8"?>
<!-- Svg Vector Icons : http://www.onlinewebfonts.com/icon -->
<!DOCTYPE svg PUBLIC "-//W3C//DTD SVG 1.1//EN" "http://www.w3.org/Graphics/SVG/1.1/DTD/svg11.dtd">
<svg version="1.1" xmlns="http://www.w3.org/2000/svg" xmlns:xlink="http://www.w3.org/1999/xlink" x="0px" y="0px" viewBox="0 0 256 256" enable-background="new 0 0 256 256" xml:space="preserve">
<metadata> Svg Vector Icons : http://www.onlinewebfonts.com/icon </metadata>
<g><g><path fill="#000000" d="M128,61.6c-44,0-81.1,23.6-81.1,51.6c0,2,1.6,3.7,3.7,3.7c2,0,3.7-1.6,3.7-3.7C54.2,89.7,88.7,69,128,69c2,0,3.7-1.6,3.7-3.7C131.7,63.3,130,61.6,128,61.6z"/><path fill="#000000" d="M128,24.7c-65.2,0-118,39.6-118,88.5c0,30.4,20.5,57.3,51.7,73.2c0,0.2,0,0.3,0,0.6c0,13.2-9.9,27.5-14.2,34.9h0c-0.3,0.8-0.6,1.7-0.6,2.6c0,3.7,3,6.7,6.7,6.7c0.7,0,1.9-0.2,1.9-0.1c23-3.8,44.8-24.9,49.8-31.1c7.4,1.1,15,1.7,22.8,1.7c65.2,0,118-39.6,118-88.5C246,64.4,193.1,24.7,128,24.7z M128,187c-6.8,0-13.7-0.5-20.6-1.5c-0.7-0.1-1.4-0.2-2.1-0.2c-4.4,0-8.6,1.9-11.4,5.4c-3.2,3.9-12.1,12.4-22.8,18.7c2.9-6.6,5.1-14,5.3-21.6c0-0.5,0.1-1,0.1-1.4c0-5.5-3.1-10.6-8-13.1c-27.3-13.9-43.6-36.4-43.6-60c0-40.7,46.3-73.7,103.2-73.7s103.2,33.1,103.2,73.7C231.2,153.9,184.9,187,128,187z"/></g></g>
</svg>