<svg version="1.2" xmlns="http://www.w3.org/2000/svg" viewBox="0 0 2200 2200" width="2200" height="2200">
	<style>
		.s0 { fill: #000000 } 
	</style>
	<g id="Background">
	</g>
	<g id="Objects">
		<g id="&lt;Group&gt;">
			<path id="&lt;Path&gt;" class="s0" d="m1460.19 577.61c0 198.92-161.26 360.18-360.19 360.18-198.92 0-360.18-161.26-360.18-360.18 0-198.93 161.26-360.19 360.18-360.19 198.93 0 360.19 161.26 360.19 360.19z"/>
			<path id="&lt;Path&gt;" class="s0" d="m1731.38 1447.24c0 0 0 106.22 0 173.78 0 0-81 58.65-273.45 58.65 0 0 0.09-5.32 0.09-7.99 0-197.73-160.29-358.02-358.02-358.02-197.73 0-358.02 160.29-358.02 358.02 0 2.67 0.09 7.99 0.09 7.99-192.45 0-273.45-58.65-273.45-58.65 0-67.56 0-173.78 0-173.78 0-64.88 9.4-122.15 31.03-171.55 64.88-148.21 239.71-225.67 600.35-225.67 360.64 0 535.47 77.46 600.35 225.67 21.63 49.4 31.03 106.67 31.03 171.55z"/>
			<path id="&lt;Compound Path&gt;" fill-rule="evenodd" class="s0" d="m1100 1982.58c-83.04 0-161.12-32.34-219.84-91.06-58.72-58.72-91.06-136.79-91.06-219.84 0-83.04 32.34-161.12 91.06-219.84 58.72-58.72 136.8-91.06 219.84-91.06 83.05 0 161.12 32.34 219.84 91.06 58.72 58.72 91.06 136.8 91.06 219.84 0 83.05-32.34 161.12-91.06 219.84-58.72 58.72-136.79 91.06-219.84 91.06zm0-563.46c-139.26 0-252.56 113.3-252.56 252.56 0 139.27 113.3 252.57 252.56 252.57 139.27 0 252.57-113.3 252.57-252.57 0-139.26-113.3-252.56-252.57-252.56z"/>
			<path id="&lt;Path&gt;" class="s0" d="m1160.92 1801.58v19.47h-121.84v-19.47h7.99c13.65 0 24.72-11.07 24.72-24.71v-107.37c0-13.65-11.07-24.71-24.72-24.71h-7.99v-19.47h89.14v151.55c0 13.64 11.06 24.71 24.71 24.71z"/>
			<path id="&lt;Path&gt;" class="s0" d="m1132.98 1558.62c0 20.06-16.25 36.31-36.31 36.31-20.05 0-36.3-16.25-36.3-36.31 0-20.05 16.25-36.3 36.3-36.3 20.06 0 36.31 16.25 36.31 36.3z"/>
		</g>
	</g>
</svg>